<svg xmlns:dc="http://purl.org/dc/elements/1.1/" xmlns:cc="http://creativecommons.org/ns#" xmlns:rdf="http://www.w3.org/1999/02/22-rdf-syntax-ns#" xmlns:svg="http://www.w3.org/2000/svg" xmlns="http://www.w3.org/2000/svg" version="1.1" viewBox="0 0 47.999997 60" x="0px" y="0px"><path d="m 23.999997,0.00391 c -3.635,0 -7.2709,1.31329 -10.1348,3.9375 -5.6143987,5.14468 -6.4483987,13.67404 -2.0254,19.81445 2.0585,2.65139 3.1602,5.90504 3.1602,9.24414 0,0.79526 0.3166,1.55876 0.8789,2.12109 0.5623,0.56234 1.3258,0.87891 2.1211,0.87891 l 12,0 c 0.7953,0 1.5588,-0.31657 2.1211,-0.87891 0.5623,-0.56233 0.8789,-1.32583 0.8789,-2.12109 0,-3.3391 1.1134,-6.58494 3.1719,-9.23633 4.423,-6.14041 3.5773,-14.67758 -2.0371,-19.82226 -2.8638,-2.62421 -6.4998,-3.9375 -10.1348,-3.9375 z m 0,1.99218 c 3.1475,0 6.2951,1.13997 8.7832,3.41993 4.9763,4.5599 5.6402,12.14329 1.5313,17.49804 -2.1482,2.92863 -3.3145,6.45817 -3.3145,10.08594 0,0.2656 -0.1052,0.51922 -0.293,0.70703 -0.1878,0.18781 -0.4414,0.29297 -0.707,0.29297 l -12,0 c -0.2656,0 -0.5192,-0.10516 -0.707,-0.29297 -0.1878,-0.18781 -0.293,-0.44143 -0.293,-0.70703 0,-3.62777 -1.1742,-7.15131 -3.3223,-10.08008 -4.1088,-5.35475 -3.4372,-12.944 1.5391,-17.5039 2.4881,-2.27996 5.6357,-3.41993 8.7832,-3.41993 z m 0,3.00391 c -0.6685,0 -1.007,0.49007 -1,1 0.01,0.49952 0.3305,1 1,1 4.4301,0 8,3.56988 8,8 0,0.67616 0.4952,1 1,1 0.5048,0 1.0096,-0.32385 1,-1 0,-5.511 -4.489,-10 -10,-10 z m -6,33 c -0.5515,0.009 -1.0076,0.44847 -1,1 l 0,5.21875 c 0,2.08722 1.8775,3.78125 4,3.78125 l 5,0 1.0332,0 2.9668,0 c 0.554,0 1,-0.446 1,-1 0,-0.554 -0.446,-1 -1,-1 l -2.9863,0 -1.0137,0 -5,0 c -1.1164,0 -2,-0.88359 -2,-2 l 0,-5 c 0.01,-0.56377 -0.4362,-1.0088 -1,-1 z m 8,0 c -0.554,0 -1,0.446 -1,1 0,0.554 0.446,1 1,1 l 4,0 c 0.554,0 1,-0.446 1,-1 0,-0.554 -0.446,-1 -1,-1 l -4,0 z m 0,4 c -0.554,0 -1,0.446 -1,1 0,0.554 0.446,1 1,1 l 4,0 c 0.554,0 1,-0.446 1,-1 0,-0.554 -0.446,-1 -1,-1 l -4,0 z" style="color:#000000;font-style:normal;font-variant:normal;font-weight:normal;font-stretch:normal;font-size:medium;line-height:normal;font-family:sans-serif;text-indent:0;text-align:start;text-decoration:none;text-decoration-line:none;text-decoration-style:solid;text-decoration-color:#000000;letter-spacing:normal;word-spacing:normal;text-transform:none;direction:ltr;block-progression:tb;writing-mode:lr-tb;baseline-shift:baseline;text-anchor:start;white-space:normal;clip-rule:nonzero;display:inline;overflow:visible;visibility:visible;opacity:1;isolation:auto;mix-blend-mode:normal;color-interpolation:sRGB;color-interpolation-filters:linearRGB;solid-color:#000000;solid-opacity:1;fill:#000000;fill-opacity:1;fill-rule:nonzero;stroke:none;stroke-width:2;stroke-linecap:butt;stroke-linejoin:round;stroke-miterlimit:4;stroke-dasharray:none;stroke-dashoffset:0;stroke-opacity:1;marker:none;color-rendering:auto;image-rendering:auto;shape-rendering:auto;text-rendering:auto;enable-background:accumulate"/></svg>