<svg xmlns="http://www.w3.org/2000/svg" xmlns:xlink="http://www.w3.org/1999/xlink" version="1.1" x="0px" y="0px" viewBox="-370 545.5 100 100" style="enable-background:new -370 545.5 100 100;" xml:space="preserve"><path fill="#ff7070" d="M-344.5,613.8c0-7.3,3.2-13.9,8.4-18.5c-1.9-1.9-4.2-3.3-6.9-4.2c3.4-1.7,5.8-5.3,5.8-9.4c0-5.8-4.7-10.5-10.5-10.5  s-10.5,4.7-10.5,10.5c0,4.1,2.3,7.7,5.8,9.4c-6.8,2.1-11.7,8.3-11.7,15.7c0,8.3,6.2,8.7,14.2,8.7c0.7,0,1.5,0,2.3,0  c0.8,0,1.5,0,2.3,0c0.4,0,0.7,0,1.1,0C-344.5,615-344.5,614.4-344.5,613.8z"/><path fill="#ff7070" d="M-287.5,591.2c3.4-1.7,5.8-5.3,5.8-9.4c0-5.8-4.7-10.5-10.5-10.5s-10.5,4.7-10.5,10.5c0,4.1,2.3,7.7,5.8,9.4  c-2.6,0.8-5,2.3-6.9,4.2c5.2,4.5,8.4,11.2,8.4,18.5c0,0.6,0,1.2-0.1,1.8c0.3,0,0.7,0,1,0c0.8,0,1.5,0,2.3,0c0.8,0,1.6,0,2.3,0  c8,0,14.2-0.4,14.2-8.7C-275.8,599.5-280.7,593.3-287.5,591.2z"/><path fill="#ff7070" d="M-323,625.2c0.9,0,2,0,3,0c1,0,2,0,3,0c10.4,0,18.5-0.5,18.5-11.4c0-9.7-6.4-17.9-15.3-20.6c4.5-2.2,7.5-7,7.5-12.3  c0-7.6-6.1-13.8-13.8-13.8c-7.6,0-13.8,6.1-13.8,13.8c0,5.4,3.1,10.1,7.5,12.3c-8.8,2.7-15.3,10.9-15.3,20.6  C-341.5,624.7-333.4,625.2-323,625.2z"/></svg>