<svg xmlns="http://www.w3.org/2000/svg" xmlns:xlink="http://www.w3.org/1999/xlink" xml:space="preserve" version="1.1" style="shape-rendering:geometricPrecision;text-rendering:geometricPrecision;image-rendering:optimizeQuality;" viewBox="0 0 7.527 7.5912500000000005" x="0px" y="0px" fill-rule="evenodd" clip-rule="evenodd"><defs><style type="text/css">
   
    .fil0 {fill:black;fill-rule:nonzero}
   
  </style></defs><g><path class="fil0" d="M1.764 5.367l3.999 0 0 -3.054c0,-0.065 0.053,-0.118 0.118,-0.118 0.011,0 0.022,0.002 0.033,0.005l0.667 0.139 0.286 -1.332 -1.821 -0.721c-0.038,0.286 -0.172,0.544 -0.369,0.739 -0.235,0.233 -0.558,0.378 -0.913,0.378 -0.356,0 -0.679,-0.145 -0.914,-0.378 -0.196,-0.195 -0.331,-0.453 -0.369,-0.739l-1.821 0.721 0.287 1.332 0.676 -0.141c0.063,-0.013 0.125,0.027 0.138,0.091 0.002,0.008 0.003,0.016 0.003,0.024l0 3.054zm5.047 -2.98l0.19 0.04 0.273 -1.259 -0.185 -0.073 -0.278 1.292zm-6.372 -1.292l-0.185 0.073 0.272 1.259 0.191 -0.04 -0.278 -1.292zm2.174 -1.092c0.385,0.068 0.769,0.101 1.151,0.1 0.382,0 0.766,-0.034 1.151,-0.1 0.022,-0.005 0.045,-0.004 0.068,0.005l2.47 0.978c0.052,0.021 0.084,0.077 0.071,0.134l-0.318 1.471c-0.014,0.063 -0.076,0.103 -0.139,0.09l-1.069 -0.224 0 3.498c0,0.065 -0.052,0.118 -0.117,0.118l-4.234 0c-0.065,0 -0.118,-0.053 -0.118,-0.118l0 -3.498 -1.068 0.224c-0.063,0.013 -0.126,-0.027 -0.14,-0.09l-0.317 -1.467c-0.015,-0.056 0.015,-0.116 0.07,-0.138l2.465 -0.976c0.015,-0.006 0.031,-0.01 0.048,-0.01 0.009,0 0.018,0.001 0.026,0.003zm2.2 0.254c-0.349,0.053 -0.699,0.08 -1.049,0.081 -0.351,0 -0.701,-0.026 -1.049,-0.08 0.031,0.233 0.141,0.442 0.301,0.601 0.191,0.19 0.456,0.308 0.748,0.308 0.291,0 0.556,-0.118 0.748,-0.308 0.16,-0.159 0.269,-0.369 0.301,-0.602zm0.95 5.345l-3.999 0 0 0.235 3.999 0 0 -0.235z"/></g></svg>