<svg xmlns="http://www.w3.org/2000/svg" viewBox="0 0 672 840" x="0px" y="0px"><path d="M603,315h-8V91a7,7,0,0,0-7-7H126a49.055,49.055,0,0,0-49,49V553a49.055,49.055,0,0,0,49,49H588a7,7,0,0,0,7-7V455h8a27.03,27.03,0,0,0,27-27V342A27.03,27.03,0,0,0,603,315ZM126,98H581v70H560V133a7,7,0,0,0-7-7H126a7,7,0,0,0,0,14H546v28H126a35,35,0,0,1,0-70ZM581,588H126a35.04,35.04,0,0,1-35-35V167.246A48.846,48.846,0,0,0,126,182H581V315H462a70,70,0,0,0,0,140H581Zm35-160a13.015,13.015,0,0,1-13,13H462a56,56,0,0,1,0-112H603a13.015,13.015,0,0,1,13,13ZM462,350a35,35,0,1,0,35,35A35.04,35.04,0,0,0,462,350Zm0,56a21,21,0,1,1,21-21A21.024,21.024,0,0,1,462,406Z"/></svg>